<svg xmlns="http://www.w3.org/2000/svg" width="118" height="22" viewBox="0 0 118 22" version="1.1"><path d="" stroke="none" fill="#08acfc" fill-rule="evenodd"/><path d="M 81.528 1.066 C 73.766 2.364, 68.700 4.683, 60.803 10.554 C 56.786 13.539, 51.126 16.884, 48.225 17.986 C 36.278 22.526, 21.447 21.284, 7.285 14.558 L 0 11.099 0 16.557 L 0 22.016 59.250 21.758 L 118.500 21.500 118.785 16 L 119.070 10.500 111.285 6.747 C 104.297 3.378, 91.947 -0.129, 88 0.135 C 87.175 0.190, 84.263 0.609, 81.528 1.066 M 0.310 16.500 C 0.315 19.800, 0.502 21.029, 0.725 19.232 C 0.947 17.435, 0.943 14.735, 0.715 13.232 C 0.486 11.729, 0.304 13.200, 0.310 16.500" stroke="none" fill="#04acfc" fill-rule="evenodd"/></svg>